<svg width="0" height="0" class="hidden">
  <symbol id="close" version="1.1" xml:space="preserve" xmlns="http://www.w3.org/2000/svg" xmlns:xlink="http://www.w3.org/1999/xlink" viewBox="0 0 512 512">
    <path d="M443.6,387.1L312.4,255.4l131.5-130c5.4-5.4,5.4-14.2,0-19.6l-37.4-37.6c-2.6-2.6-6.1-4-9.8-4c-3.7,0-7.2,1.5-9.8,4  L256,197.8L124.9,68.3c-2.6-2.6-6.1-4-9.8-4c-3.7,0-7.2,1.5-9.8,4L68,105.9c-5.4,5.4-5.4,14.2,0,19.6l131.5,130L68.4,387.1  c-2.6,2.6-4.1,6.1-4.1,9.8c0,3.7,1.4,7.2,4.1,9.8l37.4,37.6c2.7,2.7,6.2,4.1,9.8,4.1c3.5,0,7.1-1.3,9.8-4.1L256,313.1l130.7,131.1  c2.7,2.7,6.2,4.1,9.8,4.1c3.5,0,7.1-1.3,9.8-4.1l37.4-37.6c2.6-2.6,4.1-6.1,4.1-9.8C447.7,393.2,446.2,389.7,443.6,387.1z"></path>
  </symbol>
   <symbol xmlns="http://www.w3.org/2000/svg" viewBox="0 0 24 24" id="iconmonstr-arrow">
    <path d="M6.028 0v6.425l5.549 5.575-5.549 5.575v6.425l11.944-12z"></path>
  </symbol>
  <symbol enable-background="new 0 0 19 19" id="edit-icon" version="1.1" xml:space="preserve" xmlns="http://www.w3.org/2000/svg" xmlns:xlink="http://www.w3.org/1999/xlink" viewBox="0 0 19 19">
    <g>
      <path d="M8.44,7.25C8.348,7.342,8.277,7.447,8.215,7.557L8.174,7.516L8.149,7.69   C8.049,7.925,8.014,8.183,8.042,8.442l-0.399,2.796l2.797-0.399c0.259,0.028,0.517-0.007,0.752-0.107l0.174-0.024l-0.041-0.041   c0.109-0.062,0.215-0.133,0.307-0.225l5.053-5.053l-3.191-3.191L8.44,7.25z" ></path>
      <path d="M18.183,1.568l-0.87-0.87c-0.641-0.641-1.637-0.684-2.225-0.097l-0.797,0.797l3.191,3.191l0.797-0.798   C18.867,3.205,18.824,2.209,18.183,1.568z" ></path>
      <path d="M15,9.696V17H2V2h8.953l1.523-1.42c0.162-0.161,0.353-0.221,0.555-0.293   c0.043-0.119,0.104-0.18,0.176-0.287H0v19h17V7.928L15,9.696z" ></path>
    </g>
  </symbol>
  <symbol xmlns="http://www.w3.org/2000/svg" xml:space="preserve" viewBox="0 0 512.04 512.04" id="two-arrow">
    <path d="M508.933 248.353 402.267 141.687c-4.267-4.053-10.987-3.947-15.04.213a10.763 10.763 0 0 0 0 14.827l88.427 88.427H36.4l88.427-88.427c4.053-4.267 3.947-10.987-.213-15.04a10.763 10.763 0 0 0-14.827 0L3.12 248.353a10.623 10.623 0 0 0 0 15.04L109.787 370.06c4.267 4.053 10.987 3.947 15.04-.213a10.763 10.763 0 0 0 0-14.827L36.4 266.593h439.147L387.12 355.02c-4.267 4.053-4.373 10.88-.213 15.04 4.053 4.267 10.88 4.373 15.04.213l.213-.213 106.667-106.667c4.266-4.053 4.266-10.88.106-15.04z"></path>
  </symbol>
  <symbol xmlns="http://www.w3.org/2000/svg" viewBox="0 0 48 48" id="cart">
    <path d="M14 36c-2.21 0-3.98 1.79-3.98 4s1.77 4 3.98 4 4-1.79 4-4-1.79-4-4-4zM2 4v4h4l7.19 15.17-2.7 4.9c-.31.58-.49 1.23-.49 1.93 0 2.21 1.79 4 4 4h24v-4H14.85c-.28 0-.5-.22-.5-.5 0-.09.02-.17.06-.24L16.2 26h14.9c1.5 0 2.81-.83 3.5-2.06l7.15-12.98c.16-.28.25-.61.25-.96a2 2 0 0 0-2-2H10.43l-1.9-4H2zm32 32c-2.21 0-3.98 1.79-3.98 4s1.77 4 3.98 4 4-1.79 4-4-1.79-4-4-4z"></path>
    <path fill="none" d="M0 0h48v48H0z"></path>
  </symbol>
  <symbol xmlns="http://www.w3.org/2000/svg" xml:space="preserve" viewBox="0 0 495.398 495.398" id="home">
    <path d="m487.083 225.514-75.08-75.08v-86.73c0-15.682-12.708-28.391-28.413-28.391-15.669 0-28.377 12.709-28.377 28.391v29.941L299.31 37.74c-27.639-27.624-75.694-27.575-103.27.05L8.312 225.514c-11.082 11.104-11.082 29.071 0 40.158 11.087 11.101 29.089 11.101 40.172 0l187.71-187.729c6.115-6.083 16.893-6.083 22.976-.018l187.742 187.747a28.337 28.337 0 0 0 20.081 8.312c7.271 0 14.541-2.764 20.091-8.312 11.086-11.086 11.086-29.053-.001-40.158z"></path>
    <path d="M257.561 131.836c-5.454-5.451-14.285-5.451-19.723 0L72.712 296.913a13.977 13.977 0 0 0-4.085 9.877v120.401c0 28.253 22.908 51.16 51.16 51.16h81.754v-126.61h92.299v126.61h81.755c28.251 0 51.159-22.907 51.159-51.159V306.79c0-3.713-1.465-7.271-4.085-9.877L257.561 131.836z"></path>
  </symbol>
  <symbol xmlns="http://www.w3.org/2000/svg" viewBox="0 0 24 24" id="contacts">
    <path d="M21 2H6a2 2 0 0 0-2 2v3H2v2h2v2H2v2h2v2H2v2h2v3a2 2 0 0 0 2 2h15a1 1 0 0 0 1-1V3a1 1 0 0 0-1-1zm-8 2.999c1.648 0 3 1.351 3 3A3.012 3.012 0 0 1 13 11c-1.647 0-3-1.353-3-3.001 0-1.649 1.353-3 3-3zM19 18H7v-.75c0-2.219 2.705-4.5 6-4.5s6 2.281 6 4.5V18z"></path>
  </symbol>
   <symbol xmlns="http://www.w3.org/2000/svg" xml:space="preserve" viewBox="0 0 490 490" id="shop-list">
    <path d="M474.688 22.969H15.313C6.891 22.969 0 29.859 0 38.281v327.948c0 8.422 6.891 15.313 15.313 15.313h214.375v54.865h-103.36v30.625h237.344v-30.625H260.313v-54.865h214.375c8.422 0 15.313-6.891 15.313-15.313V38.281c-.001-8.422-6.892-15.312-15.313-15.312zm-15.313 327.948H30.625V53.594h428.75v297.323z"></path>
    <ellipse cx="212.354" cy="281" rx="25.051" ry="24.745"></ellipse>
    <ellipse cx="296.756" cy="281" rx="25.051" ry="24.745"></ellipse>
    <path d="M182.877 148.562h-21.039l25.954 97.54h133.862l25.955-97.54H198.741L185.45 98.674h-43.059v15.312h31.283z"></path>
  </symbol>
  <symbol id="left-arrow" version="1.1" xml:space="preserve" xmlns="http://www.w3.org/2000/svg" xmlns:xlink="http://www.w3.org/1999/xlink" viewBox="0 0 128 128">
    <g>
      <line x1="87.5" x2="40.5" y1="111" y2="64"></line>
      <line x1="40.5" x2="87.5" y1="64" y2="17"></line>
    </g>
  </symbol>
  <symbol xmlns="http://www.w3.org/2000/svg" xml:space="preserve" viewBox="0 0 488 488" id="clock">
    <path d="M351.1 306.6 254 238.7V122c0-5.5-4.5-10-10-10s-10 4.5-10 10v122c0 3.3 1.6 6.3 4.3 8.2l101.4 70.9c1.7 1.2 3.7 1.8 5.7 1.8 3.1 0 6.2-1.5 8.2-4.4 3.1-4.5 2-10.7-2.5-13.9z"></path>
    <path d="M416.4 71.6C370.2 25.4 309 0 244 0S117.8 25.4 71.6 71.6C25.4 117.8 0 179 0 244s25.4 126.2 71.6 172.4C117.8 462.6 179 488 244 488s126.2-25.4 172.4-71.6S488 309 488 244s-25.4-126.2-71.6-172.4zM254 467.8V427c0-5.5-4.5-10-10-10s-10 4.5-10 10v40.8C118.4 462.7 25.3 369.6 20.2 254H61c5.5 0 10-4.5 10-10s-4.5-10-10-10H20.2C25.3 118.4 118.4 25.3 234 20.2V61c0 5.5 4.5 10 10 10s10-4.5 10-10V20.2c115.6 5.1 208.7 98.2 213.8 213.8H427c-5.5 0-10 4.5-10 10s4.5 10 10 10h40.8c-5.1 115.6-98.2 208.7-213.8 213.8z"></path>
  </symbol>
  <symbol xmlns="http://www.w3.org/2000/svg" viewBox="0 0 50 50" id="lock">
    <path d="M 25 3 C 18.363281 3 13 8.363281 13 15 L 13 20 L 9 20 C 7.355469 20 6 21.355469 6 23 L 6 47 C 6 48.644531 7.355469 50 9 50 L 41 50 C 42.644531 50 44 48.644531 44 47 L 44 23 C 44 21.355469 42.644531 20 41 20 L 37 20 L 37 15 C 37 8.363281 31.636719 3 25 3 Z M 25 5 C 30.566406 5 35 9.433594 35 15 L 35 20 L 15 20 L 15 15 C 15 9.433594 19.433594 5 25 5 Z M 9 22 L 41 22 C 41.554688 22 42 22.445313 42 23 L 42 47 C 42 47.554688 41.554688 48 41 48 L 9 48 C 8.445313 48 8 47.554688 8 47 L 8 23 C 8 22.445313 8.445313 22 9 22 Z M 25 30 C 23.300781 30 22 31.300781 22 33 C 22 33.898438 22.398438 34.6875 23 35.1875 L 23 38 C 23 39.101563 23.898438 40 25 40 C 26.101563 40 27 39.101563 27 38 L 27 35.1875 C 27.601563 34.6875 28 33.898438 28 33 C 28 31.300781 26.699219 30 25 30 Z"></path>
  </symbol>
  <symbol  xmlns="http://www.w3.org/2000/svg" viewBox="0 0 30 30" id="telegram">
    <path d="M 25.154297 3.984375 C 24.829241 3.998716 24.526384 4.0933979 24.259766 4.2011719 C 24.010014 4.3016357 23.055766 4.7109106 21.552734 5.3554688 C 20.048394 6.0005882 18.056479 6.855779 15.931641 7.7695312 C 11.681964 9.5970359 6.9042108 11.654169 4.4570312 12.707031 C 4.3650097 12.746607 4.0439208 12.849183 3.703125 13.115234 C 3.3623292 13.381286 3 13.932585 3 14.546875 C 3 15.042215 3.2360676 15.534319 3.5332031 15.828125 C 3.8303386 16.121931 4.144747 16.267067 4.4140625 16.376953 C 5.3912284 16.775666 8.4218473 18.015862 8.9941406 18.25 C 9.195546 18.866983 10.29249 22.222526 10.546875 23.044922 C 10.714568 23.587626 10.874198 23.927519 11.082031 24.197266 C 11.185948 24.332139 11.306743 24.45034 11.453125 24.542969 C 11.511635 24.579989 11.575789 24.608506 11.640625 24.634766 L 11.644531 24.636719 C 11.659471 24.642719 11.67235 24.652903 11.6875 24.658203 C 11.716082 24.668202 11.735202 24.669403 11.773438 24.677734 C 11.925762 24.726927 12.079549 24.757812 12.216797 24.757812 C 12.80196 24.757814 13.160156 24.435547 13.160156 24.435547 L 13.181641 24.419922 L 16.191406 21.816406 L 19.841797 25.269531 C 19.893193 25.342209 20.372542 26 21.429688 26 C 22.057386 26 22.555319 25.685026 22.875 25.349609 C 23.194681 25.014192 23.393848 24.661807 23.478516 24.21875 L 23.478516 24.216797 C 23.557706 23.798129 26.921875 6.5273437 26.921875 6.5273438 L 26.916016 6.5507812 C 27.014496 6.1012683 27.040303 5.6826405 26.931641 5.2695312 C 26.822973 4.8564222 26.536648 4.4608905 26.181641 4.2480469 C 25.826669 4.0352506 25.479353 3.9700339 25.154297 3.984375 z M 24.966797 6.0742188 C 24.961997 6.1034038 24.970391 6.0887279 24.962891 6.1230469 L 24.960938 6.1347656 L 24.958984 6.1464844 C 24.958984 6.1464844 21.636486 23.196371 21.513672 23.845703 C 21.522658 23.796665 21.481573 23.894167 21.439453 23.953125 C 21.379901 23.91208 21.257812 23.859375 21.257812 23.859375 L 21.238281 23.837891 L 16.251953 19.121094 L 12.726562 22.167969 L 13.775391 17.96875 C 13.775391 17.96875 20.331562 11.182109 20.726562 10.787109 C 21.044563 10.471109 21.111328 10.360953 21.111328 10.251953 C 21.111328 10.105953 21.035234 10 20.865234 10 C 20.712234 10 20.506484 10.14875 20.396484 10.21875 C 18.963383 11.132295 12.671823 14.799141 9.8515625 16.439453 C 9.4033769 16.256034 6.2896636 14.981472 5.234375 14.550781 C 5.242365 14.547281 5.2397349 14.548522 5.2480469 14.544922 C 7.6958673 13.491784 12.47163 11.434667 16.720703 9.6074219 C 18.84524 8.6937992 20.838669 7.8379587 22.341797 7.1933594 C 23.821781 6.5586849 24.850125 6.1218894 24.966797 6.0742188 z"></path>
  </symbol>
    <symbol xmlns="http://www.w3.org/2000/svg" xml:space="preserve" viewBox="0 0 329.942 329.942" id="star-full">
    <path d="M329.208 126.666a14.999 14.999 0 0 0-12.109-10.209l-95.822-13.922-42.854-86.837a15.001 15.001 0 0 0-26.902 0l-42.851 86.836-95.825 13.922a15 15 0 0 0-8.313 25.586l69.339 67.582-16.375 95.446a15 15 0 0 0 21.764 15.813l85.711-45.059 85.71 45.059a15.191 15.191 0 0 0 7.021 1.723c8.275-.012 14.979-6.723 14.979-15 0-1.152-.13-2.275-.376-3.352l-16.233-94.629 69.339-67.583a14.997 14.997 0 0 0 3.797-15.376z"></path>
  </symbol>
  <symbol xmlns="http://www.w3.org/2000/svg" xml:space="preserve" viewBox="0 0 36.09 36.09" id="star-half">
    <path d="M36.041 13.907a1.003 1.003 0 0 0-.85-.687l-11.549-1.172L18.96 1.431a1 1 0 0 0-1.83 0l-4.683 10.618L.899 13.221a1 1 0 0 0-.565 1.743L8.987 22.7 6.534 34.044a1.003 1.003 0 0 0 1.481 1.077l10.031-5.839 10.031 5.839a.998.998 0 0 0 1.091-.055 1 1 0 0 0 .391-1.02L27.105 22.7l8.652-7.737c.295-.265.407-.679.284-1.056zM8.968 32.249l2.097-9.696a.998.998 0 0 0-.311-.956l-7.396-6.613 9.871-1.002a.998.998 0 0 0 .814-.592l3.503-7.943v21.812l-.003.001-8.575 4.989z"></path>
  </symbol>
  <symbol version="1.1" id="star-empty" xmlns="http://www.w3.org/2000/svg" xmlns:xlink="http://www.w3.org/1999/xlink" x="0px" y="0px" xml:space="preserve" viewBox="0 0 243.317 243.317">
    <path d="M242.949,93.714c-0.882-2.715-3.229-4.694-6.054-5.104l-74.98-10.9l-33.53-67.941c-1.264-2.56-3.871-4.181-6.725-4.181
	c-2.855,0-5.462,1.621-6.726,4.181L81.404,77.71L6.422,88.61C3.596,89.021,1.249,91,0.367,93.714
	c-0.882,2.715-0.147,5.695,1.898,7.688l54.257,52.886L43.715,228.96c-0.482,2.814,0.674,5.658,2.983,7.335
	c2.309,1.678,5.371,1.9,7.898,0.571l67.064-35.254l67.063,35.254c1.097,0.577,2.296,0.861,3.489,0.861c0.007,0,0.014,0,0.021,0
	c0,0,0,0,0.001,0c4.142,0,7.5-3.358,7.5-7.5c0-0.629-0.078-1.24-0.223-1.824l-12.713-74.117l54.254-52.885
	C243.096,99.41,243.832,96.429,242.949,93.714z M173.504,146.299c-1.768,1.723-2.575,4.206-2.157,6.639l10.906,63.581
	l-57.102-30.018c-2.185-1.149-4.795-1.149-6.979,0l-57.103,30.018l10.906-63.581c0.418-2.433-0.389-4.915-2.157-6.639
	l-46.199-45.031l63.847-9.281c2.443-0.355,4.555-1.889,5.647-4.103l28.55-57.849l28.55,57.849c1.092,2.213,3.204,3.748,5.646,4.103
	l63.844,9.281L173.504,146.299z"></path>
  </symbol>
    <symbol xmlns="http://www.w3.org/2000/svg" xml:space="preserve" viewBox="0 0 490.4 490.4" id="magnifying-glass">
    <path d="m484.1 454.796-110.5-110.6c29.8-36.3 47.6-82.8 47.6-133.4 0-116.3-94.3-210.6-210.6-210.6S0 94.496 0 210.796s94.3 210.6 210.6 210.6c50.8 0 97.4-18 133.8-48l110.5 110.5c12.9 11.8 25 4.2 29.2 0 8.4-8.3 8.4-20.8 0-29.1zm-443-244c0-93.6 75.9-169.5 169.5-169.5s169.6 75.9 169.6 169.5-75.9 169.5-169.5 169.5-169.6-75.9-169.6-169.5z"></path>
  </symbol>
  <symbol fill="none" xmlns="http://www.w3.org/2000/svg" viewBox="0 0 36 24" id="credit-card-cvv">
    <rect width="36" height="24" rx="4" fill="#D2D2D2"></rect>
    <rect y="4" width="36" height="4" fill="#4D4B4B"></rect>
    <rect x="20" y="10" width="9" height="6" stroke="#F84147" stroke-width="2"></rect>
  </symbol>
</svg>